<svg xmlns="http://www.w3.org/2000/svg" xmlns:xlink="http://www.w3.org/1999/xlink" width="2000" zoomAndPan="magnify" viewBox="0 0 1500 1499.999933" height="2000" preserveAspectRatio="xMidYMid meet" version="1.0"><defs><g/><clipPath id="b36919c312"><rect x="0" width="921" y="0" height="905"/></clipPath><clipPath id="bf4388d27b"><path d="M 352 48 L 757 48 L 757 1350 L 352 1350 Z M 352 48 " clip-rule="nonzero"/></clipPath><clipPath id="b199ac319f"><path d="M -353.1875 442.132812 L 40.847656 48.097656 L 948.773438 956.023438 L 554.738281 1350.058594 Z M -353.1875 442.132812 " clip-rule="nonzero"/></clipPath><clipPath id="36cb533efb"><path d="M -353.1875 442.132812 L 554.738281 -465.789062 L 1462.664062 442.132812 L 554.738281 1350.058594 Z M -353.1875 442.132812 " clip-rule="nonzero"/></clipPath></defs><g transform="matrix(1, 0, 0, 1, 282, 276)"><g clip-path="url(#b36919c312)"><g fill="#2c0a71" fill-opacity="1"><g transform="translate(0.797965, 701.044439)"><g><path d="M 457.578125 -691.78125 L 457.578125 0 L 61.5 0 L 61.5 -691.78125 Z M 907.921875 -449.4375 C 907.921875 -399.394531 895.5625 -355.988281 870.84375 -319.21875 C 846.125 -282.445312 814.320312 -254.414062 775.4375 -235.125 C 736.550781 -215.832031 696.609375 -206.1875 655.609375 -206.1875 L 515.453125 -206.1875 L 515.453125 -691.78125 L 642.046875 -691.78125 C 690.878906 -691.78125 735.640625 -681.378906 776.328125 -660.578125 C 817.023438 -639.785156 849.128906 -611 872.640625 -574.21875 C 896.160156 -537.445312 907.921875 -495.851562 907.921875 -449.4375 Z M 907.921875 -449.4375 "/></g></g></g></g></g><g clip-path="url(#bf4388d27b)"><g clip-path="url(#b199ac319f)"><g clip-path="url(#36cb533efb)"><path fill="#2c0a71" d="M 352.722656 -264.539062 L 352.722656 1004.066406 L 554.671875 1349.992188 L 756.621094 1004.066406 L 756.621094 -264.539062 L 698.863281 -322.300781 L 410.484375 -322.300781 Z M 410.484375 -241.605469 L 433.417969 -264.539062 L 675.714844 -264.753906 L 698.863281 -241.605469 L 698.863281 -91.683594 L 410.484375 -91.683594 Z M 410.484375 946.308594 L 410.484375 -33.921875 L 698.863281 -33.921875 L 698.863281 946.308594 Z M 554.671875 1236.59375 L 419.191406 1003.855469 L 690.15625 1003.855469 Z M 554.671875 1236.59375 " fill-opacity="1" fill-rule="evenodd"/></g></g></g></svg>